<svg width="36" height="36" viewBox="0 0 36 36" fill="none" xmlns="http://www.w3.org/2000/svg">
<g clip-path="url(#clip0_6_11)">
<path d="M32.3299 6.00001C32.1936 5.98596 32.0562 5.98596 31.9199 6.00001H3.91989C3.74044 6.00277 3.56217 6.02968 3.38989 6.08001L17.8399 20.47L32.3299 6.00001Z" fill="black"/>
<path d="M33.8099 7.39L19.2499 21.89C18.8752 22.2625 18.3683 22.4716 17.8399 22.4716C17.3116 22.4716 16.8047 22.2625 16.4299 21.89L1.99993 7.5C1.95557 7.66304 1.93205 7.83105 1.92993 8V28C1.92993 28.5304 2.14065 29.0391 2.51572 29.4142C2.89079 29.7893 3.3995 30 3.92993 30H31.9299C32.4604 30 32.9691 29.7893 33.3441 29.4142C33.7192 29.0391 33.9299 28.5304 33.9299 28V8C33.922 7.79165 33.8815 7.58583 33.8099 7.39ZM5.29993 28H3.90993V26.57L11.1799 19.36L12.5899 20.77L5.29993 28ZM31.9099 28H30.5099L23.2199 20.77L24.6299 19.36L31.8999 26.57L31.9099 28Z" fill="black"/>
</g>
<defs>
<clipPath id="clip0_6_11">
<rect width="36" height="36" fill="white"/>
</clipPath>
</defs>
</svg>
