<svg width="32" height="32" viewBox="0 0 32 32" fill="none" xmlns="http://www.w3.org/2000/svg">
<path d="M24.5 0H7.5C3.35786 0 0 3.35786 0 7.5V24.5C0 28.6421 3.35786 32 7.5 32H24.5C28.6421 32 32 28.6421 32 24.5V7.5C32 3.35786 28.6421 0 24.5 0Z" fill="#242938"/>
<path d="M28.5 22.8671C28.1361 23.005 27.7343 23.0047 27.3706 22.8664C27.0069 22.7281 26.7065 22.4613 26.5261 22.1165C25.3932 20.4206 24.1422 18.8012 22.9399 17.1471L22.4185 16.4521C20.9868 18.3704 19.555 20.2121 18.2484 22.1235C18.0782 22.453 17.794 22.7095 17.4488 22.845C17.1035 22.9805 16.7208 22.986 16.3719 22.8602L21.7444 15.6529L16.7471 9.14037C17.1068 9.01049 17.5004 9.00871 17.8613 9.13533C18.2221 9.26195 18.5283 9.50921 18.728 9.83537C19.8886 11.5314 21.1745 13.1507 22.4533 14.8675C23.7391 13.1646 25.011 11.5382 26.1995 9.85624C26.3706 9.53202 26.6549 9.28203 26.9984 9.15387C27.3419 9.02572 27.7205 9.02834 28.0621 9.16124L26.123 11.7329C25.2542 12.8796 24.3994 14.0334 23.4959 15.1524C23.4231 15.2176 23.3648 15.2974 23.3249 15.3866C23.2851 15.4758 23.2644 15.5724 23.2644 15.6702C23.2644 15.7679 23.2851 15.8645 23.3249 15.9538C23.3648 16.043 23.4231 16.1228 23.4959 16.188C25.157 18.3912 26.8041 20.6014 28.5 22.8671ZM3.5 15.5625C3.646 14.8675 3.73625 14.1099 3.93788 13.401C5.14025 9.12662 10.0401 7.34724 13.411 9.99537C15.3849 11.5454 15.8784 13.7416 15.7811 16.2159H4.66075C4.48 20.6362 7.67013 23.3051 11.7499 21.9429C12.4117 21.7061 13.0041 21.3083 13.4737 20.7853C13.9433 20.2623 14.2753 19.6306 14.4396 18.9472C14.6551 18.2522 15.0026 18.1341 15.6629 18.3356C15.5541 19.1817 15.255 19.9922 14.7879 20.7061C14.3208 21.4199 13.698 22.0186 12.9663 22.4571C11.7572 23.1184 10.37 23.3804 9.0031 23.2056C7.63617 23.0309 6.35952 22.4283 5.35575 21.4841C4.36269 20.3675 3.76223 18.9567 3.646 17.4669C3.646 17.2306 3.55562 16.9942 3.507 16.7719C3.5024 16.3688 3.50007 15.9656 3.5 15.5625ZM4.67462 15.2636H14.7316C14.669 12.0596 12.6465 9.78687 9.94987 9.76612C6.94737 9.72437 4.79975 11.9484 4.66762 15.2497L4.67462 15.2636Z" fill="white"/>
</svg>
