<svg width="256" height="288" viewBox="0 0 256 288" fill="none" xmlns="http://www.w3.org/2000/svg">
<path fill-rule="evenodd" clip-rule="evenodd" d="M152.576 32.963L211.722 67.113C213.429 65.306 215.389 63.7553 217.54 62.509C229.806 55.457 245.452 59.644 252.577 71.911C259.629 84.178 255.442 99.823 243.175 106.948C241.04 108.177 238.74 109.093 236.344 109.668V177.993C238.713 178.569 240.989 179.478 243.102 180.695C255.442 187.82 259.629 203.466 252.504 215.733C245.452 227.999 229.733 232.186 217.466 225.135C215.09 223.771 212.949 222.033 211.126 219.988L152.34 253.928C153.2 256.535 153.638 259.263 153.635 262.008C153.635 276.111 142.177 287.644 128 287.644C113.823 287.644 102.365 276.184 102.365 262.008C102.365 259.488 102.727 257.054 103.402 254.755L44.272 220.615C42.5834 222.386 40.6514 223.908 38.534 225.135C26.194 232.186 10.548 227.999 3.49601 215.733C-3.55499 203.466 0.632014 187.82 12.898 180.695C15.011 179.478 17.2865 178.568 19.656 177.992V109.668C17.2604 109.093 14.9599 108.177 12.825 106.948C0.558014 99.897 -3.62899 84.178 3.42301 71.911C10.475 59.644 26.193 55.457 38.46 62.509C40.5993 63.7487 42.5492 65.2894 44.25 67.084L103.413 32.925C102.716 30.5579 102.363 28.1027 102.365 25.635C102.365 11.46 113.823 0 128 0C142.177 0 153.635 11.459 153.635 25.635C153.635 28.183 153.265 30.642 152.576 32.963ZM146.414 43.485L205.701 77.715C204.757 81.0151 204.486 84.4713 204.905 87.8781C205.324 91.2849 206.423 94.5727 208.138 97.546C211.747 103.824 217.626 107.986 224.151 109.608V178.018C223.818 178.099 223.487 178.187 223.158 178.282L145.725 44.17C145.959 43.946 146.189 43.717 146.414 43.485ZM110.291 44.186L32.859 178.296C32.5242 178.199 32.1875 178.109 31.849 178.026V109.609C38.374 107.987 44.253 103.825 47.862 97.547C49.5804 94.568 50.681 91.2733 51.0979 87.8595C51.5149 84.4458 51.2398 80.9831 50.289 77.678L109.559 43.458C109.798 43.7053 110.042 43.9487 110.291 44.186ZM135.163 50.26L212.577 184.34C210.804 186.032 209.284 187.971 208.064 190.097C206.847 192.21 205.938 194.486 205.362 196.855H50.64C50.0639 194.485 49.1534 192.21 47.936 190.097C46.7123 187.985 45.1952 186.058 43.43 184.373L120.859 50.266C123.18 50.9346 125.584 51.2726 128 51.27C130.487 51.27 132.89 50.918 135.163 50.26ZM146.958 244.738L205.86 210.73C205.684 210.175 205.526 209.614 205.387 209.048H50.607C50.525 209.381 50.4363 209.711 50.341 210.04L109.531 244.215C111.921 241.73 114.79 239.754 117.964 238.406C121.138 237.058 124.552 236.367 128 236.373C131.569 236.367 135.1 237.107 138.365 238.548C141.63 239.989 144.557 242.097 146.958 244.738Z" fill="#E535AB"/>
</svg>
