<svg width="1024" height="1024" viewBox="0 0 1024 1024" fill="none" xmlns="http://www.w3.org/2000/svg">
<path d="M847.7 112H176.3C140.8 112 112 140.8 112 176.3V847.7C112 883.2 140.8 912 176.3 912H847.7C883.2 912 912 883.2 912 847.7V176.3C912 140.8 883.2 112 847.7 112ZM847.7 848C399.9 847.9 176 847.8 176 847.7C176.1 399.9 176.2 176 176.3 176C624.1 176.1 848 176.2 848 176.3C847.9 624.1 847.8 848 847.7 848ZM230.6 411.9H349.3V793.7H230.6V411.9ZM290 359.7C327.9 359.7 358.8 328.9 358.8 290.9C358.8 281.865 357.02 272.919 353.563 264.571C350.105 256.224 345.038 248.64 338.649 242.251C332.26 235.862 324.676 230.795 316.329 227.337C307.981 223.88 299.035 222.1 290 222.1C280.965 222.1 272.019 223.88 263.671 227.337C255.324 230.795 247.74 235.862 241.351 242.251C234.962 248.64 229.895 256.224 226.437 264.571C222.98 272.919 221.2 281.865 221.2 290.9C221.1 328.9 251.9 359.7 290 359.7ZM542.3 604.8C542.3 555 551.8 506.8 613.5 506.8C674.3 506.8 675.2 563.7 675.2 608V793.7H793.8V584.3C793.8 481.5 771.6 402.4 651.5 402.4C593.8 402.4 555.1 434.1 539.2 464.1H537.6V411.9H423.7V793.7H542.3V604.8Z" fill="black"/>
</svg>
