<svg width="86" height="69" viewBox="0 0 86 69" fill="none" xmlns="http://www.w3.org/2000/svg">
<mask id="mask0_9_9" style="mask-type:luminance" maskUnits="userSpaceOnUse" x="0" y="0" width="86" height="69">
<path d="M86 0H0V69H86V0Z" fill="white"/>
</mask>
<g mask="url(#mask0_9_9)">
<path d="M64.5021 69V64.0714C64.5021 63.4242 64.363 62.7832 64.093 62.1852C63.8229 61.5875 63.427 61.0441 62.928 60.5861C62.4285 60.1285 61.836 59.7656 61.1841 59.5179C60.5319 59.2703 59.8329 59.1428 59.127 59.1428H37.6255C30.4978 59.1428 23.662 56.5465 18.6219 51.925C13.5818 47.3036 10.7503 41.0358 10.7502 34.5C10.7502 31.2638 11.4453 28.0594 12.7959 25.0696C14.1466 22.0797 16.1262 19.3631 18.6218 17.0748C21.1174 14.7865 24.0801 12.9714 27.3408 11.733C30.6015 10.4946 34.0962 9.85721 37.6255 9.85725H59.1254C59.8313 9.85743 60.5307 9.7301 61.1829 9.48252C61.8351 9.23491 62.4281 8.87189 62.9272 8.41422C63.4266 7.95651 63.8225 7.41312 64.093 6.81506C64.363 6.217 64.5021 5.57599 64.5021 4.92862V0H37.6267C32.6858 -2.60031e-10 27.7932 0.892371 23.2283 2.62616C18.6634 4.35995 14.5157 6.90122 11.0219 10.1048C7.52813 13.3085 4.75671 17.1117 2.86592 21.2975C0.975131 25.4832 0.00197648 29.9694 0.00202942 34.5C0.00202942 43.6498 3.96603 52.4251 11.022 58.8951C18.078 65.3651 27.648 69 37.6267 69H64.5021Z" fill="url(#paint0_linear_9_9)"/>
<path d="M21.4999 34.5C21.4999 38.4214 23.1987 42.182 26.2227 44.9546C29.2466 47.7275 33.3479 49.2851 37.6243 49.2851H64.5017C67.3529 49.2851 70.0868 50.3238 72.1028 52.1723C74.1187 54.0208 75.2515 56.528 75.2515 59.1424V68.9996H86.0016V59.1427C86.0016 53.9144 83.7365 48.9 79.7046 45.2026C75.6723 41.5056 70.2037 39.4286 64.5017 39.4286H37.6251C36.1996 39.4286 34.8324 38.9093 33.8244 37.9852C32.8163 37.0608 32.2501 35.8072 32.2501 34.5C32.2501 33.1928 32.8163 31.9393 33.8244 31.0149C34.8324 30.0906 36.1996 29.5714 37.6251 29.5714H64.5017C70.2037 29.5714 75.6723 27.4944 79.7046 23.7972C83.7365 20.1001 86.0016 15.0858 86.0016 9.85725V0H75.2499V9.85725C75.2499 12.4712 74.1175 14.9781 72.102 16.8266C70.0864 18.6751 67.3525 19.7137 64.5017 19.7141H37.6251C35.5075 19.714 33.4106 20.0964 31.4542 20.8394C29.4977 21.5824 27.72 22.6716 26.2227 24.0446C24.7253 25.4176 23.5375 27.0476 22.7272 28.8416C21.9168 30.6355 21.4998 32.5583 21.4999 34.5Z" fill="url(#paint1_linear_9_9)"/>
</g>
<defs>
<linearGradient id="paint0_linear_9_9" x1="9.74153" y1="34.5" x2="92.4953" y2="34.5" gradientUnits="userSpaceOnUse">
<stop stop-color="#F54A48"/>
<stop offset="1" stop-color="#FA982F"/>
</linearGradient>
<linearGradient id="paint1_linear_9_9" x1="9.6961" y1="34.4998" x2="92.5163" y2="34.4998" gradientUnits="userSpaceOnUse">
<stop stop-color="#F54A48"/>
<stop offset="1" stop-color="#FA982F"/>
</linearGradient>
</defs>
</svg>
