<svg width="128" height="128" viewBox="0 0 128 128" fill="none" xmlns="http://www.w3.org/2000/svg">
<rect width="25.6051" height="24.718" transform="matrix(0.880644 -0.473779 0.526687 0.850059 0 35.6089)" fill="#FF8A00"/>
<rect width="24.718" height="25.6051" transform="matrix(-0.526687 0.850059 -0.880644 -0.473779 128 35.6089)" fill="#FF8A00"/>
<rect x="53" y="17" width="23" height="25" fill="#FF8A00"/>
<rect x="53" y="64" width="23" height="25" fill="#FF8A00"/>
<path d="M14.5291 36.0094L18.0437 38.9581L22.1394 36.7547L20.2158 40.7806L23.7303 43.7294L19.0269 43.2687L17.1034 47.2946L16.1201 42.984L11.4167 42.5234L15.5124 40.32L14.5291 36.0094Z" fill="#E52E71"/>
<path d="M64.5 23L65.9593 27.1459H70.6819L66.8613 29.7082L68.3206 33.8541L64.5 31.2918L60.6794 33.8541L62.1387 29.7082L58.3181 27.1459H63.0407L64.5 23Z" fill="#E52E71"/>
<path d="M64.5 71L65.9593 74.8004H70.6819L66.8613 77.1492L68.3206 80.9496L64.5 78.6008L60.6794 80.9496L62.1387 77.1492L58.3181 74.8004H63.0407L64.5 71Z" fill="#E52E71"/>
<path d="M115.853 43.082L111.228 42.1657L108.863 45.9822L108.369 41.5994L103.743 40.6832L108.063 38.8908L107.569 34.508L110.733 37.783L115.054 35.9905L112.689 39.807L115.853 43.082Z" fill="#E52E71"/>
<line y1="-0.5" x2="25.6051" y2="-0.5" transform="matrix(0.880644 -0.473779 0.526687 0.850059 14.3205 59.459)" stroke="black"/>
<line y1="-0.5" x2="25.6051" y2="-0.5" transform="matrix(0.880644 -0.473779 0.526687 0.850059 14.3205 65.5246)" stroke="black"/>
<line y1="-0.5" x2="25.6051" y2="-0.5" transform="matrix(0.880644 -0.473779 0.526687 0.850059 14.3205 71.5902)" stroke="black"/>
<line x1="53" y1="43.5" x2="76" y2="43.5" stroke="black"/>
<line x1="53" y1="45.5" x2="76" y2="45.5" stroke="black"/>
<line x1="53" y1="51.5" x2="76" y2="51.5" stroke="black"/>
<line x1="53" y1="46.5" x2="76" y2="46.5" stroke="black"/>
<line x1="53" y1="52.5" x2="76" y2="52.5" stroke="black"/>
<line x1="53" y1="59.5" x2="76" y2="59.5" stroke="black"/>
<line x1="53" y1="54.5" x2="76" y2="54.5" stroke="black"/>
<line x1="53" y1="60.5" x2="76" y2="60.5" stroke="black"/>
<line x1="53" y1="62.5" x2="76" y2="62.5" stroke="black"/>
<line y1="-0.5" x2="25.6051" y2="-0.5" transform="matrix(0.880644 0.473779 -0.526687 0.850059 91.1306 47.3279)" stroke="black"/>
<line y1="-0.5" x2="25.6051" y2="-0.5" transform="matrix(0.880644 0.473779 -0.526687 0.850059 91.1306 53.3934)" stroke="black"/>
<line y1="-0.5" x2="25.6051" y2="-0.5" transform="matrix(0.880644 0.473779 -0.526687 0.850059 91.1306 59.459)" stroke="black"/>
<g style="mix-blend-mode:color-burn">
<rect width="19.2038" height="18.5385" transform="matrix(0.880644 -0.473779 0.526687 0.850059 1.19128 36.1124)" fill="#D9D9D9"/>
</g>
<g style="mix-blend-mode:color-burn">
<rect x="58" y="71" width="18" height="18" fill="#D9D9D9"/>
</g>
<g style="mix-blend-mode:color-burn">
<rect width="19.7744" height="19.2038" transform="matrix(-0.526687 0.850059 -0.880644 -0.473779 126.483 35.5871)" fill="#D9D9D9"/>
</g>
<g style="mix-blend-mode:color-burn">
<rect x="58" y="23" width="18" height="19" fill="#D9D9D9"/>
</g>
<g style="mix-blend-mode:overlay">
<path d="M7.36889 35.6089L20.0621 49.7918L14.2037 52.9436L7.36889 35.6089Z" fill="#D9D9D9"/>
</g>
<g style="mix-blend-mode:overlay">
<path d="M65 20L68.4641 38.75H61.5359L65 20Z" fill="#D9D9D9"/>
</g>
<g style="mix-blend-mode:overlay">
<path d="M122.793 41.2623L104.19 34.8934L107.572 29.4344L122.793 41.2623Z" fill="#D9D9D9"/>
</g>
<g style="mix-blend-mode:overlay">
<path d="M62 66L65.4641 84.75H58.5359L62 66Z" fill="#D9D9D9"/>
</g>
<path d="M25.5 53L30.4579 55.4535L25.5 57.9005L20.5421 55.4535L25.5 53ZM20 62.4943V56.3475L25.0769 58.8532V65L20 62.4943ZM25.9231 58.8532L31 56.3475V62.4943L25.9231 65V58.8532Z" fill="black"/>
<path d="M102 53L108.31 55.4535L102 57.9005L95.6899 55.4535L102 53ZM95 62.4943V56.3475L101.462 58.8532V65L95 62.4943ZM102.538 58.8532L109 56.3475V62.4943L102.538 65V58.8532Z" fill="black"/>
<path d="M85.6678 76.7976C88.174 75.6743 90.6735 74.5418 93.1883 73.4303C95.5752 72.3748 98.3834 73.3481 98.9247 75.4019C99.2379 76.59 98.5581 77.8735 97.1836 78.4986C92.6773 80.5479 88.1645 82.589 83.6291 84.599C82.2254 85.2211 80.7794 85.1066 79.5002 84.3443C78.2007 83.5704 77.7911 82.5028 78.0959 81.2603C78.4438 80.3144 79.2402 79.682 80.3263 79.2089C82.122 78.4268 83.8887 77.6035 85.6678 76.7976Z" fill="#FABC05"/>
<path d="M87.5 75.7651C84.9998 74.5369 82.4933 73.3184 80.0018 72.0778C77.6367 70.9 77.3129 68.3129 79.3216 66.8018C80.4836 65.928 82.248 65.73 83.6292 66.3987C88.1573 68.5912 92.6794 70.7929 97.1781 73.0279C98.5704 73.7196 99.1663 74.8421 98.9603 76.1936C98.7509 77.5661 97.7711 78.4455 96.2396 78.8962C95.0156 79.1542 93.9156 78.9132 92.8474 78.3735C91.0814 77.481 89.2841 76.6322 87.5 75.7651Z" fill="#109D58"/>
<path d="M43.9826 74.8908C42.3025 75.6606 40.6216 76.4291 38.9431 77.2013C37.9615 77.6531 36.9905 78.1202 36.0038 78.5644C34.0155 79.4596 31.6533 78.9349 30.5259 77.3582C29.45 75.8537 30.0684 73.903 31.9832 73.0014C36.665 70.7972 41.359 68.6091 46.0698 66.4453C47.5146 65.7818 49.0136 65.8653 50.3497 66.6586C51.7598 67.4959 52.2214 68.6742 51.9048 70.0553C51.7083 70.3897 51.591 70.7815 51.2968 71.0448C50.8185 71.4731 50.2748 71.8832 49.6696 72.1844C47.7964 73.116 45.8812 73.9928 43.9826 74.8908Z" fill="#E72111"/>
<path d="M42.0566 75.9718C43.724 76.7015 45.3901 77.4329 47.0591 78.1606C48.0351 78.5863 49.0225 78.9979 49.9932 79.4301C51.9492 80.3016 52.5674 82.0715 51.4377 83.53C50.3597 84.922 47.9554 85.4251 46.0292 84.6042C41.3199 82.5972 36.622 80.5752 31.9417 78.5307C30.5064 77.9037 29.8463 76.8959 30.0301 75.665C30.2241 74.3656 31.2587 73.522 32.9007 73.0874C33.3578 73.0599 33.8374 72.9543 34.2674 73.0227C34.9667 73.1338 35.6792 73.2954 36.3054 73.5474C38.2429 74.3272 40.1424 75.1597 42.0566 75.9718Z" fill="#4385F3"/>
</svg>
