<svg width="128" height="26" viewBox="0 0 128 26" fill="none" xmlns="http://www.w3.org/2000/svg">
<path d="M0 0.0980225V25.86H4.422V5.60402L20.73 25.87H48.424V21.757H30.553V14.956H44.923V10.843H30.553V4.22202H48.423V0.106022H26.13V4.22202H26.132V25.68L5.527 0.0980225H0ZM85.09 0.108025V4.22302H94.12V25.873H98.54V4.22302H107.387V0.107021H85.09V0.108025ZM53.768 0.119022L74.498 25.883H80.301L69.936 13.01L80.286 0.139023L74.496 0.149021L67.037 9.41002L59.557 0.120022H53.767L53.768 0.119022ZM123.926 14.717C123.165 14.717 122.481 14.845 121.875 15.111C121.272 15.3744 120.797 15.7437 120.449 16.219C120.099 16.6957 119.924 17.2504 119.924 17.883C119.923 18.6524 120.183 19.268 120.704 19.73C121.222 20.194 121.93 20.5394 122.828 20.766L124.068 21.078C124.418 21.1628 124.761 21.2745 125.094 21.412C125.353 21.5139 125.586 21.6712 125.777 21.873C125.943 22.0666 126.032 22.315 126.025 22.57C126.028 22.8626 125.927 23.1467 125.742 23.373C125.541 23.6159 125.278 23.8006 124.982 23.908C124.62 24.0419 124.236 24.1071 123.85 24.1C123.47 24.1061 123.092 24.0445 122.734 23.918C122.422 23.8057 122.145 23.6137 121.93 23.361C121.718 23.095 121.595 22.7695 121.578 22.43H119.637C119.664 23.1414 119.852 23.7454 120.203 24.242C120.729 24.987 121.039 25.115 121.663 25.372C122.283 25.632 123.02 25.762 123.865 25.762C124.74 25.7607 125.484 25.6274 126.098 25.362C126.715 25.092 127.186 24.7194 127.512 24.244C127.839 23.765 128 23.216 128 22.586C127.999 22.1194 127.911 21.7137 127.734 21.369C127.56 21.0254 127.315 20.723 127.014 20.482C126.702 20.2318 126.356 20.0274 125.986 19.875C125.602 19.7114 125.203 19.5826 124.796 19.49L123.776 19.24C123.551 19.1861 123.328 19.121 123.109 19.045C122.899 18.9739 122.699 18.8783 122.512 18.76C122.338 18.6561 122.191 18.513 122.082 18.342C121.973 18.1685 121.918 17.9667 121.924 17.762C121.924 17.5036 122.008 17.2522 122.162 17.045C122.318 16.835 122.547 16.669 122.84 16.545C123.177 16.4163 123.535 16.3538 123.896 16.361C124.481 16.3604 124.958 16.488 125.326 16.744C125.504 16.8638 125.652 17.0222 125.76 17.2075C125.868 17.3929 125.933 17.6002 125.949 17.814H127.849C127.847 17.2384 127.668 16.6772 127.336 16.207C127.003 15.7404 126.544 15.375 125.959 15.111C125.376 14.847 124.698 14.7157 123.926 14.717ZM115.928 14.861V22.411C115.925 22.789 115.866 23.107 115.752 23.365C115.649 23.6082 115.472 23.8127 115.246 23.949C115.027 24.0824 114.759 24.149 114.443 24.149C114.154 24.149 113.897 24.0924 113.672 23.979C113.455 23.8725 113.274 23.7054 113.15 23.498C113.02 23.2694 112.953 23.0108 112.955 22.748H110.992C110.991 23.4094 111.14 23.9614 111.439 24.404C111.737 24.8479 112.158 25.196 112.65 25.406C113.193 25.6391 113.779 25.755 114.37 25.746C115.068 25.746 115.68 25.6127 116.205 25.346C116.719 25.0906 117.149 24.6915 117.441 24.197C117.734 23.699 117.884 23.1034 117.889 22.41V14.861H115.928ZM62.596 14.92L53.752 25.902H59.557L65.494 18.522L62.596 14.92ZM108.381 23.418C108.057 23.418 107.78 23.53 107.551 23.754C107.44 23.8566 107.352 23.9815 107.292 24.1207C107.233 24.2598 107.204 24.4098 107.207 24.561C107.203 24.714 107.232 24.866 107.291 25.007C107.35 25.148 107.439 25.2748 107.551 25.379C107.78 25.6037 108.057 25.7157 108.381 25.715C108.583 25.7167 108.782 25.6627 108.955 25.559C109.13 25.4586 109.278 25.3155 109.383 25.143C109.492 24.9684 109.549 24.7667 109.549 24.561C109.549 24.4094 109.517 24.2594 109.456 24.1205C109.395 23.9816 109.306 23.8569 109.195 23.754C109.089 23.6464 108.962 23.5612 108.822 23.5035C108.682 23.4457 108.532 23.4167 108.381 23.418Z" fill="black"/>
</svg>
