<svg width="32" height="32" viewBox="0 0 32 32" fill="none" xmlns="http://www.w3.org/2000/svg">
<mask id="mask0_4005_127" style="mask-type:luminance" maskUnits="userSpaceOnUse" x="0" y="0" width="32" height="32">
<path d="M16 32C24.8366 32 32 24.8366 32 16C32 7.16344 24.8366 0 16 0C7.16344 0 0 7.16344 0 16C0 24.8366 7.16344 32 16 32Z" fill="white"/>
</mask>
<g mask="url(#mask0_4005_127)">
<path d="M16 32C24.8366 32 32 24.8366 32 16C32 7.16344 24.8366 0 16 0C7.16344 0 0 7.16344 0 16C0 24.8366 7.16344 32 16 32Z" fill="black"/>
<path d="M26.5792 28.0035L12.2919 9.60001H9.59998V22.3946H11.7535V12.335L24.8887 29.3058C25.4806 28.9098 26.0453 28.4747 26.5792 28.0035Z" fill="url(#paint0_linear_4005_127)"/>
<path d="M20.4445 9.60001H22.5779V22.4H20.4445V9.60001Z" fill="url(#paint1_linear_4005_127)"/>
</g>
<defs>
<linearGradient id="paint0_linear_4005_127" x1="954.207" y1="1120.71" x2="1521.21" y2="1823.49" gradientUnits="userSpaceOnUse">
<stop stop-color="white"/>
<stop offset="1" stop-color="white" stop-opacity="0"/>
</linearGradient>
<linearGradient id="paint1_linear_4005_127" x1="127.113" y1="9.60001" x2="123.504" y2="949.593" gradientUnits="userSpaceOnUse">
<stop stop-color="white"/>
<stop offset="1" stop-color="white" stop-opacity="0"/>
</linearGradient>
</defs>
</svg>
