<svg width="129" height="128" viewBox="0 0 129 128" fill="none" xmlns="http://www.w3.org/2000/svg">
<path d="M15.227 27.712C14.99 20.897 20.299 14.613 27.476 14.613H101.016C108.193 14.613 113.502 20.897 113.265 27.712C113.037 34.258 113.333 42.738 115.467 49.652C117.608 56.588 121.218 60.971 127.131 61.535V67.922C121.218 68.486 117.608 72.869 115.467 79.805C113.333 86.719 113.037 95.199 113.265 101.745C113.502 108.56 108.193 114.843 101.016 114.843H27.476C20.299 114.843 14.99 108.559 15.227 101.745C15.455 95.199 15.159 86.719 13.024 79.805C10.884 72.87 7.26395 68.486 1.35095 67.922V61.535C7.26395 60.972 10.884 56.588 13.024 49.652C15.159 42.738 15.454 34.258 15.227 27.712Z" fill="url(#paint0_linear_392_7)"/>
<g filter="url(#filter0_d_392_7)">
<path d="M67.3517 91.7362C78.9707 91.7362 85.9723 86.0472 85.9723 76.6638C85.9723 69.5708 80.9765 64.4358 73.5586 63.6229V63.3274C79.0085 62.4408 83.2852 57.3797 83.2852 51.7276C83.2852 43.6741 76.9271 38.428 67.2382 38.428H45.4384V91.7362H67.3517ZM53.9161 45.1886H65.1946C71.3258 45.1886 74.8075 47.9223 74.8075 52.8726C74.8075 58.1555 70.758 61.1108 63.4158 61.1108H53.9161V45.1886ZM53.9161 84.9757V67.4279H65.1187C73.1422 67.4279 77.3054 70.3832 77.3054 76.1464C77.3054 81.9093 73.2559 84.9757 65.6107 84.9757H53.9161Z" fill="url(#paint1_linear_392_7)"/>
</g>
<defs>
<filter id="filter0_d_392_7" x="41.5078" y="35.4801" width="48.395" height="61.1693" filterUnits="userSpaceOnUse" color-interpolation-filters="sRGB">
<feFlood flood-opacity="0" result="BackgroundImageFix"/>
<feColorMatrix in="SourceAlpha" type="matrix" values="0 0 0 0 0 0 0 0 0 0 0 0 0 0 0 0 0 0 127 0" result="hardAlpha"/>
<feOffset dy="0.98264"/>
<feGaussianBlur stdDeviation="1.96528"/>
<feColorMatrix type="matrix" values="0 0 0 0 0 0 0 0 0 0 0 0 0 0 0 0 0 0 0.15 0"/>
<feBlend mode="normal" in2="BackgroundImageFix" result="effect1_dropShadow_392_7"/>
<feBlend mode="normal" in="SourceGraphic" in2="effect1_dropShadow_392_7" result="shape"/>
</filter>
<linearGradient id="paint0_linear_392_7" x1="20.0415" y1="17.2656" x2="129.95" y2="104.512" gradientUnits="userSpaceOnUse">
<stop stop-color="#9013FE"/>
<stop offset="1" stop-color="#6610F2"/>
</linearGradient>
<linearGradient id="paint1_linear_392_7" x1="49.2736" y1="41.936" x2="73.8396" y2="83.4845" gradientUnits="userSpaceOnUse">
<stop stop-color="white"/>
<stop offset="1" stop-color="#F1E5FC"/>
</linearGradient>
</defs>
</svg>
