<svg width="128" height="128" viewBox="0 0 128 128" fill="none" xmlns="http://www.w3.org/2000/svg">
<g clip-path="url(#clip0_4_2)">
<path d="M114.313 55.254C114.261 55.2539 114.211 55.2693 114.168 55.298L111.822 56.668C111.778 56.6953 111.742 56.7337 111.717 56.7792C111.692 56.8248 111.679 56.8761 111.68 56.928V59.668C111.68 59.784 111.735 59.872 111.822 59.93L114.168 61.298C114.211 61.3265 114.261 61.3418 114.313 61.3418C114.365 61.3418 114.415 61.3265 114.458 61.298L116.8 59.93C116.845 59.9022 116.881 59.8634 116.907 59.8174C116.932 59.7713 116.945 59.7196 116.945 59.667V56.93C116.945 56.8778 116.932 56.8265 116.907 56.781C116.881 56.7354 116.844 56.6972 116.8 56.67L114.457 55.299C114.414 55.2704 114.364 55.2541 114.313 55.254ZM63.22 71.638C62.793 71.638 62.368 71.742 62.006 71.946L50.457 78.673C50.0867 78.8901 49.7798 79.2005 49.5668 79.5732C49.3538 79.9458 49.2422 80.3678 49.243 80.797V94.22C49.243 95.094 49.705 95.91 50.457 96.348L53.497 98.094C54.973 98.822 55.494 98.82 56.159 98.82C58.329 98.82 59.574 97.481 59.574 95.18V81.935C59.5727 81.8428 59.5357 81.7547 59.4708 81.6893C59.4059 81.6238 59.3182 81.5861 59.226 81.584H57.752C57.6595 81.5855 57.5712 81.6231 57.5059 81.6886C57.4405 81.7541 57.4033 81.8425 57.402 81.935V95.183C57.402 96.202 56.333 97.223 54.626 96.35L51.471 94.515C51.355 94.457 51.296 94.309 51.296 94.193V80.767C51.296 80.651 51.355 80.507 51.471 80.448L63.016 73.751C63.103 73.693 63.249 73.693 63.365 73.751L74.913 80.448C75.028 80.507 75.085 80.622 75.085 80.768V94.192C75.085 94.337 75.028 94.456 74.913 94.514L63.365 101.241C63.278 101.299 63.132 101.299 63.016 101.241L60.065 99.462C59.978 99.404 59.862 99.375 59.775 99.433C58.965 99.899 58.823 99.96 58.041 100.222C57.867 100.28 57.578 100.395 58.156 100.715L62.006 103.017C62.382 103.22 62.786 103.336 63.22 103.336C63.654 103.336 64.087 103.221 64.434 103.076L75.983 96.349C76.3534 96.131 76.6604 95.82 76.8733 95.4466C77.0863 95.0733 77.1979 94.6508 77.197 94.221V80.797C77.197 79.923 76.735 79.11 75.983 78.673L64.434 71.946C64.0622 71.7415 63.6443 71.6355 63.22 71.638ZM81.25 77.768C80.6573 77.7704 80.0898 78.008 79.6722 78.4286C79.2546 78.8491 79.0211 79.4183 79.023 80.011C79.0214 80.6035 79.255 81.1724 79.6726 81.5928C80.0901 82.0132 80.6575 82.2506 81.25 82.253C82.467 82.253 83.478 81.234 83.478 80.011C83.4749 79.4198 83.2396 78.8534 82.8228 78.434C82.4061 78.0146 81.8412 77.7748 81.25 77.768ZM81.22 78.147C81.4665 78.144 81.7112 78.1899 81.9398 78.2823C82.1684 78.3747 82.3763 78.5115 82.5515 78.685C82.7267 78.8584 82.8657 79.065 82.9604 79.2926C83.0551 79.5203 83.1035 79.7645 83.103 80.011C83.103 81.031 82.263 81.905 81.221 81.905C80.209 81.905 79.369 81.059 79.369 80.011C79.369 78.963 80.237 78.147 81.22 78.147ZM80.411 78.758V81.32H80.905V80.304H81.339C81.513 80.304 81.57 80.362 81.599 80.507C81.599 80.537 81.685 81.177 81.685 81.293H82.205C82.147 81.177 82.118 80.827 82.089 80.623C82.061 80.303 82.033 80.07 81.685 80.041C81.859 79.982 82.148 79.895 82.148 79.429C82.148 78.759 81.568 78.759 81.28 78.759L80.411 78.758ZM80.846 79.166H81.25C81.396 79.166 81.626 79.166 81.626 79.515C81.626 79.631 81.57 79.866 81.25 79.866H80.845L80.846 79.166ZM66.376 81.176C63.076 81.176 61.108 82.574 61.108 84.933C61.108 87.467 63.076 88.163 66.231 88.484C70.021 88.863 70.311 89.417 70.311 90.174C70.311 91.484 69.267 92.038 66.836 92.038C63.768 92.038 63.103 91.28 62.871 89.737C62.871 89.562 62.729 89.447 62.555 89.447H61.05C60.958 89.448 60.8702 89.4852 60.8054 89.5506C60.7407 89.6159 60.7042 89.704 60.704 89.796C60.704 91.776 61.745 94.106 66.811 94.106C70.456 94.106 72.569 92.648 72.569 90.086C72.569 87.581 70.889 86.912 67.331 86.446C63.741 85.98 63.366 85.718 63.366 84.874C63.366 84.175 63.684 83.244 66.346 83.244C68.719 83.244 69.615 83.769 69.963 85.37C69.9804 85.4422 70.0211 85.5068 70.0787 85.5537C70.1363 85.6007 70.2077 85.6275 70.282 85.63H71.815C71.903 85.63 71.99 85.573 72.049 85.515C72.1027 85.4377 72.1323 85.3461 72.134 85.252C71.903 82.457 70.081 81.176 66.376 81.176Z" fill="#5FA04E"/>
<path d="M86.072 24.664C85.9489 24.6627 85.8277 24.6933 85.72 24.753C85.608 24.8182 85.5147 24.9112 85.449 25.0229C85.3833 25.1346 85.3475 25.2614 85.345 25.391V44.32C85.345 44.494 85.255 44.67 85.082 44.786C85.0021 44.829 84.9128 44.8515 84.822 44.8515C84.7313 44.8515 84.6419 44.829 84.562 44.786L81.496 43.011C81.2711 42.8821 81.0163 42.8142 80.757 42.8142C80.4977 42.8142 80.243 42.8821 80.018 43.011L67.75 50.146C67.523 50.274 67.3338 50.4597 67.2016 50.6843C67.0694 50.9089 66.9988 51.1644 66.997 51.425V65.665C66.997 66.189 67.287 66.685 67.75 66.947L80.02 74.082C80.2448 74.2108 80.4994 74.2785 80.7585 74.2785C81.0176 74.2785 81.2722 74.2108 81.497 74.082L93.766 66.947C94.229 66.685 94.519 66.189 94.519 65.665V30.168C94.519 29.615 94.229 29.118 93.766 28.857L86.446 24.753C86.3303 24.6948 86.2016 24.6644 86.072 24.664ZM13.687 42.43C13.456 42.43 13.225 42.514 13.023 42.63L0.753012 49.739C0.522617 49.8705 0.33141 50.0609 0.199063 50.2908C0.0667167 50.5207 -0.00199014 50.7817 1.20216e-05 51.047L0.030012 70.149C0.030012 70.412 0.173012 70.674 0.405012 70.791C0.512376 70.862 0.638271 70.8999 0.767012 70.8999C0.895753 70.8999 1.02165 70.862 1.12901 70.791L8.42301 66.598C8.88601 66.336 9.17301 65.84 9.17301 65.316V56.376C9.17301 55.852 9.46301 55.356 9.92701 55.094L13.023 53.289C13.254 53.143 13.516 53.085 13.776 53.085C14.036 53.085 14.297 53.143 14.5 53.289L17.596 55.094C18.059 55.356 18.349 55.852 18.349 56.376V65.316C18.349 65.84 18.637 66.336 19.099 66.598L26.335 70.791C26.4476 70.8623 26.5782 70.9001 26.7115 70.9001C26.8448 70.9001 26.9754 70.8623 27.088 70.791C27.2029 70.728 27.2986 70.6351 27.3648 70.522C27.431 70.4089 27.4653 70.28 27.464 70.149V51.047C27.464 50.523 27.174 50.027 26.71 49.764L14.47 42.63C14.2642 42.5197 14.0385 42.4514 13.806 42.429L13.687 42.43ZM114.354 42.64C114.101 42.64 113.85 42.706 113.618 42.838L101.346 49.969C100.883 50.231 100.596 50.727 100.596 51.252V65.492C100.596 66.016 100.883 66.512 101.346 66.774L113.53 73.761C113.749 73.8897 113.999 73.9575 114.254 73.9575C114.508 73.9575 114.758 73.8897 114.977 73.761L122.357 69.628C122.472 69.5649 122.567 69.4719 122.633 69.3588C122.699 69.2458 122.733 69.1169 122.732 68.986C122.733 68.8554 122.699 68.727 122.633 68.6143C122.567 68.5017 122.471 68.4089 122.357 68.346L110.03 61.21C109.918 61.1442 109.825 61.0507 109.759 60.9384C109.693 60.8262 109.657 60.699 109.655 60.569V56.113C109.654 55.9823 109.688 55.8537 109.754 55.741C109.82 55.6282 109.915 55.5356 110.03 55.473L113.88 53.259C113.993 53.1878 114.123 53.15 114.257 53.15C114.39 53.15 114.52 53.1878 114.633 53.259L118.479 55.472C118.592 55.5376 118.685 55.631 118.752 55.7432C118.818 55.8554 118.854 55.9828 118.857 56.113V59.608C118.857 59.871 119.001 60.133 119.232 60.249C119.345 60.3205 119.476 60.3585 119.609 60.3585C119.743 60.3585 119.873 60.3205 119.986 60.249L127.277 55.969C127.501 55.8385 127.685 55.651 127.813 55.4255C127.94 55.2001 128.005 54.9448 128.001 54.686V51.221C128.001 50.697 127.711 50.204 127.277 49.941L115.093 42.837C114.868 42.7084 114.614 42.6401 114.355 42.639L114.354 42.64ZM80.757 53.274C80.822 53.274 80.888 53.289 80.947 53.319L85.141 55.765C85.257 55.823 85.316 55.967 85.316 56.084V60.976C85.316 61.122 85.257 61.24 85.141 61.298L80.946 63.744C80.8871 63.7727 80.8225 63.7877 80.757 63.7877C80.6915 63.7877 80.6269 63.7727 80.568 63.744L76.373 61.298C76.257 61.24 76.198 61.093 76.198 60.976V56.084C76.198 55.938 76.258 55.823 76.373 55.764L80.568 53.319C80.627 53.2895 80.6911 53.274 80.757 53.274Z" fill="#333333"/>
<path d="M47.982 42.893C47.7574 42.7642 47.5029 42.6965 47.244 42.6965C46.9851 42.6965 46.7307 42.7642 46.506 42.893L34.322 49.97C34.0984 50.1 33.9135 50.2872 33.7863 50.5123C33.659 50.7375 33.5941 50.9924 33.598 51.251V65.432C33.598 65.957 33.888 66.452 34.322 66.714L46.506 73.79C46.7307 73.9188 46.9851 73.9865 47.244 73.9865C47.5029 73.9865 47.7574 73.9188 47.982 73.79L60.165 66.714C60.628 66.452 60.889 65.957 60.889 65.432V51.251C60.889 50.727 60.599 50.231 60.165 49.97L47.982 42.893Z" fill="url(#paint0_linear_4_2)"/>
<path d="M60.194 49.97L47.953 42.893C47.8329 42.8321 47.7069 42.7835 47.577 42.748L33.859 66.364C33.975 66.51 34.119 66.626 34.264 66.714L46.506 73.79C46.853 73.994 47.258 74.052 47.634 73.935L60.513 50.232C60.4283 50.1213 60.3191 50.0316 60.194 49.97Z" fill="url(#paint1_linear_4_2)"/>
<path d="M60.194 66.713C60.542 66.509 60.802 66.16 60.918 65.781L47.518 42.718C47.172 42.66 46.795 42.689 46.477 42.893L34.322 49.94L47.432 73.993C47.605 73.964 47.808 73.906 47.982 73.818L60.194 66.713Z" fill="url(#paint2_linear_4_2)"/>
</g>
<defs>
<linearGradient id="paint0_linear_4_2" x1="52.2054" y1="48.1627" x2="41.0785" y2="70.7206" gradientUnits="userSpaceOnUse">
<stop stop-color="#3F873F"/>
<stop offset="0.33" stop-color="#3F8B3D"/>
<stop offset="0.637" stop-color="#3E9638"/>
<stop offset="0.934" stop-color="#3DA92E"/>
<stop offset="1" stop-color="#3DAE2B"/>
</linearGradient>
<linearGradient id="paint1_linear_4_2" x1="45.3925" y1="59.9975" x2="76.4377" y2="37.2007" gradientUnits="userSpaceOnUse">
<stop offset="0.138" stop-color="#3F873F"/>
<stop offset="0.402" stop-color="#52A044"/>
<stop offset="0.713" stop-color="#64B749"/>
<stop offset="0.908" stop-color="#6ABF4B"/>
</linearGradient>
<linearGradient id="paint2_linear_4_2" x1="33.1523" y1="58.3367" x2="61.3447" y2="58.3367" gradientUnits="userSpaceOnUse">
<stop offset="0.092" stop-color="#6ABF4B"/>
<stop offset="0.287" stop-color="#64B749"/>
<stop offset="0.598" stop-color="#52A044"/>
<stop offset="0.862" stop-color="#3F873F"/>
</linearGradient>
<clipPath id="clip0_4_2">
<rect width="128" height="128" fill="white"/>
</clipPath>
</defs>
</svg>
