<svg width="129" height="128" viewBox="0 0 129 128" fill="none" xmlns="http://www.w3.org/2000/svg">
<path d="M64.1619 75.4C70.458 75.4 75.5619 70.2961 75.5619 64C75.5619 57.704 70.458 52.6 64.1619 52.6C57.8659 52.6 52.7619 57.704 52.7619 64C52.7619 70.2961 57.8659 75.4 64.1619 75.4Z" fill="#61DAFB"/>
<path d="M107.462 45.2C105.262 44.4 102.962 43.6 100.562 42.9C101.162 40.5 101.662 38.1 102.062 35.8C104.162 22.6 101.862 13.3 95.4619 9.70001C93.5619 8.60001 91.4619 8.10001 89.0619 8.10001C82.0619 8.10001 73.1619 13.3 64.1619 22C55.1619 13.3 46.2619 8.10001 39.2619 8.10001C36.8619 8.10001 34.7619 8.60001 32.8619 9.70001C26.4619 13.4 24.1619 22.7 26.2619 35.8C26.6619 38.1 27.1619 40.5 27.7619 42.9C25.3619 43.6 23.0619 44.3 20.8619 45.2C8.36192 50 1.56192 56.6 1.56192 64C1.56192 71.4 8.46192 78 20.8619 82.8C23.0619 83.6 25.3619 84.4 27.7619 85.1C27.1619 87.5 26.6619 89.9 26.2619 92.2C24.1619 105.4 26.4619 114.7 32.8619 118.3C34.7619 119.4 36.8619 119.9 39.2619 119.9C46.3619 119.9 55.2619 114.7 64.1619 106C73.1619 114.7 82.0619 119.9 89.0619 119.9C91.4619 119.9 93.5619 119.4 95.4619 118.3C101.862 114.6 104.162 105.3 102.062 92.2C101.662 89.9 101.162 87.5 100.562 85.1C102.962 84.4 105.262 83.7 107.462 82.8C119.962 78 126.762 71.4 126.762 64C126.762 56.6 119.962 50 107.462 45.2ZM92.6619 14.7C96.7619 17.1 98.1619 24.5 96.4619 35C96.1619 37.1 95.6619 39.3 95.0619 41.6C89.8619 40.4 84.3619 39.6 78.5619 39.1C75.1619 34.3 71.6619 30 68.1619 26.1C75.5619 18.8 83.0619 13.8 89.1619 13.8C90.4619 13.8 91.6619 14.1 92.6619 14.7ZM81.4619 74C79.6619 77.2 77.5619 80.4 75.3619 83.6C71.6619 83.9 67.9619 84 64.1619 84C60.2619 84 56.5619 83.9 52.9619 83.6C50.7619 80.4 48.7619 77.2 46.9619 74C45.0619 70.7 43.2619 67.3 41.6619 64C43.2619 60.7 45.0619 57.3 46.9619 54C48.7619 50.8 50.8619 47.6 53.0619 44.4C56.7619 44.1 60.4619 44 64.2619 44C68.1619 44 71.8619 44.1 75.4619 44.4C77.6619 47.6 79.6619 50.8 81.4619 54C83.3619 57.3 85.1619 60.7 86.7619 64C85.0619 67.3 83.3619 70.6 81.4619 74ZM89.7619 70.7C91.2619 74.2 92.4619 77.6 93.5619 81C90.1619 81.8 86.5619 82.4 82.7619 82.9C83.9619 81 85.2619 79 86.3619 76.9C87.5619 74.8 88.6619 72.7 89.7619 70.7ZM64.1619 97.8C61.7619 95.2 59.4619 92.4 57.2619 89.5C59.5619 89.6 61.8619 89.7 64.1619 89.7C66.4619 89.7 68.7619 89.6 71.0619 89.5C68.8619 92.4 66.5619 95.2 64.1619 97.8ZM45.5619 82.8C41.7619 82.3 38.1619 81.7 34.7619 80.9C35.8619 77.6 37.0619 74.1 38.5619 70.6C39.6619 72.6 40.7619 74.7 41.9619 76.7C43.1619 78.9 44.3619 80.8 45.5619 82.8ZM38.5619 57.3C37.0619 53.8 35.8619 50.4 34.7619 47C38.1619 46.2 41.7619 45.6 45.5619 45.1C44.3619 47 43.0619 49 41.9619 51.1C40.7619 53.2 39.6619 55.3 38.5619 57.3ZM64.1619 30.2C66.5619 32.8 68.8619 35.6 71.0619 38.5C68.7619 38.4 66.4619 38.3 64.1619 38.3C61.8619 38.3 59.5619 38.4 57.2619 38.5C59.4619 35.6 61.7619 32.8 64.1619 30.2ZM86.3619 51.2L82.7619 45.2C86.5619 45.7 90.1619 46.3 93.5619 47.1C92.4619 50.4 91.2619 53.9 89.7619 57.4C88.6619 55.3 87.5619 53.2 86.3619 51.2ZM31.8619 35C30.1619 24.5 31.5619 17.1 35.6619 14.7C36.6619 14.1 37.8619 13.8 39.1619 13.8C45.1619 13.8 52.6619 18.7 60.1619 26.1C56.6619 29.9 53.1619 34.3 49.7619 39.1C43.9619 39.6 38.4619 40.5 33.2619 41.6C32.6619 39.3 32.2619 37.1 31.8619 35ZM7.16192 64C7.16192 59.3 12.8619 54.3 22.8619 50.6C24.8619 49.8 27.0619 49.1 29.2619 48.5C30.8619 53.5 32.8619 58.8 35.2619 64.1C32.8619 69.4 30.7619 74.6 29.2619 79.6C15.4619 75.6 7.16192 69.6 7.16192 64ZM35.6619 113.3C31.5619 110.9 30.1619 103.5 31.8619 93C32.1619 90.9 32.6619 88.7 33.2619 86.4C38.4619 87.6 43.9619 88.4 49.7619 88.9C53.1619 93.7 56.6619 98 60.1619 101.9C52.7619 109.2 45.2619 114.2 39.1619 114.2C37.8619 114.2 36.6619 113.9 35.6619 113.3ZM96.4619 93C98.1619 103.5 96.7619 110.9 92.6619 113.3C91.6619 113.9 90.4619 114.2 89.1619 114.2C83.1619 114.2 75.6619 109.3 68.1619 101.9C71.6619 98.1 75.1619 93.7 78.5619 88.9C84.3619 88.4 89.8619 87.5 95.0619 86.4C95.6619 88.7 96.0619 90.9 96.4619 93ZM105.462 77.4C103.462 78.2 101.262 78.9 99.0619 79.5C97.4619 74.5 95.4619 69.2 93.0619 63.9C95.4619 58.6 97.5619 53.4 99.0619 48.4C112.862 52.4 121.162 58.4 121.162 64C121.162 68.7 115.362 73.7 105.462 77.4Z" fill="#61DAFB"/>
</svg>
