<svg width="128" height="128" viewBox="0 0 128 128" fill="none" xmlns="http://www.w3.org/2000/svg">
<path d="M98.1798 88.13C113.81 72.51 116.41 49.77 103.98 37.35C91.5498 24.93 68.8098 27.53 53.1798 43.15C37.5498 58.77 42.0698 88.63 47.3798 93.93C51.6698 98.22 82.5498 103.75 98.1798 88.13Z" fill="#F89939"/>
<path d="M34.0401 65.56C24.9701 56.5 11.7701 54.99 4.56007 62.19C-2.64993 69.4 -1.13993 82.59 7.93007 91.65C17.0001 100.72 34.3301 98.09 37.4101 95.02C39.9001 92.53 43.1201 74.62 34.0401 65.56Z" fill="#3499CD"/>
<path d="M123.82 85.68C123.24 85.68 122.95 85.33 122.95 84.62C122.95 84.09 123.3 82.93 123.99 81.16C125 78.57 125.51 76.71 125.51 75.58C125.51 74.9 125.31 74.33 124.91 73.88C124.51 73.43 124.01 73.2 123.41 73.2C122.53 73.2 121.52 73.61 120.38 74.44C119.24 75.27 117.71 76.76 115.78 78.92C116.06 77.52 116.66 75.6 117.56 73.16L113.25 73.99C112.27 76.11 111.56 78.02 111.12 79.72C110.9 80.55 110.74 81.41 110.63 82.28C109.28 83.59 108.4 84.38 108.02 84.67C107.63 84.96 107.22 85.1 106.8 85.1C106.41 85.1 106.1 84.95 105.87 84.66C105.64 84.37 105.53 83.97 105.53 83.48C105.53 82.95 105.63 82.34 105.83 81.65C106.03 80.96 106.47 79.66 107.16 77.75L108.8 73.23L107.19 73.3C105.73 76.08 104.02 77.58 102.06 77.79C102.59 76.41 102.86 75.35 102.86 74.61C102.86 73.67 102.4 73.2 101.48 73.2C100.39 73.2 99.5402 73.71 98.9302 74.74C98.3102 75.77 98.0002 76.74 98.0002 77.65C98.0002 78.56 98.5102 79.2 99.5202 79.65C98.8602 80.62 98.1202 81.53 97.3202 82.39C96.3702 83.33 95.6302 84.05 95.0902 84.52C94.5402 85.01 94.0302 85.25 93.5702 85.25C92.8502 85.25 92.4902 84.74 92.4902 83.73C92.4902 82.72 92.8902 80.98 93.6902 78.38L95.2502 73.2H94.2602L90.6502 75.2C90.0602 73.85 89.0302 73.17 87.5602 73.17C86.3902 73.17 85.0502 73.67 83.5302 74.66C82.0102 75.65 80.7602 76.94 79.7902 78.55C79.0402 79.79 78.5802 81.09 78.4102 82.43C77.0502 83.79 76.0302 84.67 75.3502 85.08C74.6402 85.5 73.9002 85.71 73.1202 85.71C71.1302 85.71 69.9002 84.56 69.4302 82.26C74.6202 80.74 77.2102 78.76 77.2102 76.32C77.2102 75.4 76.8802 74.66 76.2202 74.09C75.5602 73.52 74.6802 73.24 73.5902 73.24C71.4802 73.24 69.5602 74.25 67.8302 76.27C66.2602 78.1 65.4102 80.13 65.2602 82.36C63.8302 83.77 62.7502 84.7 62.0502 85.15C61.3302 85.61 60.6502 85.84 60.0202 85.84C59.3902 85.84 58.8902 85.54 58.5202 84.94C58.1402 84.34 57.9502 83.53 57.9502 82.5C57.9502 82.04 58.0002 81.2 58.0902 79.97C60.4502 77.41 62.1802 75.01 63.2902 72.76C64.4002 70.51 64.9502 68.18 64.9502 65.78C64.9502 64.93 64.8402 64.26 64.6202 63.76C64.4002 63.26 64.1202 63.01 63.7802 63.01C63.7102 63.01 63.6002 63.03 63.4602 63.08L58.9702 64.74C57.4402 67.66 56.1302 70.85 55.0602 74.32C53.9902 77.78 53.4502 80.75 53.4502 83.22C53.4502 84.87 53.8302 86.18 54.6102 87.16C55.3802 88.14 56.4002 88.63 57.6602 88.63C58.7602 88.63 59.9102 88.28 61.1202 87.58C62.3302 86.88 63.7302 85.79 65.3402 84.32C66.9502 82.85 65.3402 84.3 65.3402 84.3C65.5302 85.41 65.9902 86.34 66.7102 87.1C67.7002 88.12 68.9902 88.64 70.5902 88.64C72.0302 88.64 73.3402 88.29 74.5302 87.59C75.6802 86.92 76.9702 85.87 78.4102 84.48C78.5302 85.52 78.8702 86.42 79.4402 87.19C80.1702 88.16 81.0502 88.65 82.0802 88.65C83.1102 88.65 84.1702 88.25 85.1702 87.45C86.1702 86.65 87.2502 85.4 88.4302 83.72C88.3202 87.01 89.2002 88.65 91.0602 88.65C91.8002 88.65 92.5802 88.38 93.3902 87.84C94.2002 87.3 95.5502 86.13 97.4402 84.34C99.0802 82.72 100.28 81.2 101.05 79.78C102.09 79.6 103.04 79.29 103.91 78.84C102.13 81.63 101.24 83.86 101.24 85.52C101.24 86.42 101.49 87.17 101.98 87.77C102.47 88.37 103.08 88.68 103.8 88.68C105.37 88.68 107.6 87.27 110.48 84.48C110.48 84.7 110.46 84.91 110.46 85.13C110.46 85.91 110.53 87.09 110.65 88.68L114.56 87.76C114.56 86.7 114.58 85.86 114.61 85.23C114.67 84.39 114.79 83.47 114.96 82.47C115.07 81.88 115.34 81.32 115.77 80.79L116.76 79.64C117.12 79.22 117.47 78.84 117.78 78.51C118.15 78.12 118.48 77.79 118.77 77.52C119.1 77.23 119.39 76.99 119.64 76.83C119.91 76.67 120.13 76.58 120.29 76.58C120.58 76.58 120.73 76.77 120.73 77.15C120.73 77.53 120.45 78.41 119.9 79.8C118.86 82.39 118.34 84.32 118.34 85.58C118.34 86.51 118.58 87.25 119.07 87.81C119.55 88.36 120.19 88.64 120.98 88.64C122.92 88.64 125.26 87.2 127.98 84.33V82.3C126.05 84.57 124.66 85.71 123.8 85.71L123.82 85.68ZM58.5602 77.39C59.3602 73.48 60.1802 70.45 61.0102 68.28C61.8402 66.11 62.4802 65.02 62.9102 65.02C63.1102 65.02 63.2802 65.15 63.4102 65.42C63.5402 65.68 63.6002 66.04 63.6002 66.47C63.6002 67.96 63.1402 69.73 62.2002 71.8C61.2702 73.86 60.0502 75.73 58.5602 77.39ZM70.3502 76.41C71.0602 75.22 71.8002 74.63 72.5802 74.63C73.4002 74.63 73.8202 75.2 73.8202 76.33C73.8202 78.62 72.3102 80.18 69.2902 81.03C69.2902 79.13 69.6402 77.59 70.3502 76.41ZM87.8302 82.26C86.7902 84.27 85.6702 85.27 84.5002 85.27C84.0202 85.27 83.6202 85.07 83.3102 84.68C83.0002 84.29 82.8402 83.77 82.8402 83.13C82.8402 81.45 83.3702 79.6 84.4202 77.6C85.4702 75.6 86.5902 74.6 87.7702 74.6C88.2602 74.6 88.6602 74.78 88.9502 75.16C89.2402 75.53 89.3902 76.05 89.3902 76.71C89.3902 78.41 88.8702 80.26 87.8302 82.27V82.26Z" fill="#010101"/>
<path d="M75.4601 64.88C75.6101 65.09 75.6801 65.36 75.6801 65.68C75.6801 66 75.5901 66.29 75.4101 66.56C75.2301 66.83 74.9701 67.05 74.6201 67.2C74.2801 67.35 73.8901 67.43 73.4601 67.43C72.7401 67.43 72.2001 67.28 71.8201 66.98C71.4401 66.68 71.2001 66.24 71.1001 65.65L72.0301 65.5C72.0801 65.87 72.2301 66.16 72.4601 66.35C72.7001 66.55 73.0301 66.65 73.4601 66.65C73.8901 66.65 74.2101 66.56 74.4201 66.39C74.6301 66.22 74.7301 66.01 74.7301 65.77C74.7301 65.56 74.6401 65.39 74.4501 65.27C74.3201 65.19 74.0001 65.08 73.4901 64.95C72.8001 64.78 72.3301 64.63 72.0601 64.5C71.7901 64.37 71.5901 64.2 71.4601 63.97C71.3301 63.74 71.2501 63.5 71.2501 63.23C71.2501 62.98 71.3101 62.76 71.4201 62.55C71.5301 62.34 71.6901 62.17 71.8801 62.03C72.0301 61.92 72.2201 61.83 72.4701 61.76C72.7201 61.69 72.9901 61.65 73.2801 61.65C73.7101 61.65 74.0901 61.71 74.4201 61.84C74.7501 61.96 74.9901 62.13 75.1501 62.35C75.3101 62.56 75.4101 62.85 75.4701 63.21L74.5501 63.33C74.5101 63.05 74.3901 62.82 74.1901 62.66C73.9901 62.5 73.7101 62.42 73.3401 62.42C72.9101 62.42 72.6001 62.49 72.4201 62.63C72.2401 62.77 72.1401 62.94 72.1401 63.13C72.1401 63.25 72.1801 63.36 72.2501 63.46C72.3301 63.56 72.4501 63.64 72.6101 63.71C72.7001 63.74 72.9801 63.82 73.4401 63.95C74.1001 64.13 74.5601 64.27 74.8301 64.38C75.0901 64.49 75.3001 64.66 75.4501 64.87L75.4601 64.88ZM79.9301 66.32C79.6801 66.55 79.3801 66.66 79.0101 66.66C78.5501 66.66 78.1801 66.49 77.9001 66.16C77.6201 65.83 77.4701 65.28 77.4701 64.54C77.4701 63.8 77.6201 63.27 77.9101 62.94C78.2001 62.61 78.5901 62.43 79.0601 62.43C79.3701 62.43 79.6401 62.52 79.8601 62.71C80.0801 62.9 80.2301 63.18 80.3201 63.55L81.2301 63.41C81.1201 62.85 80.8801 62.42 80.5001 62.12C80.1201 61.82 79.6301 61.67 79.0301 61.67C78.5501 61.67 78.1201 61.78 77.7101 62.01C77.3101 62.23 77.0001 62.57 76.8101 63.02C76.6101 63.47 76.5101 63.99 76.5101 64.59C76.5101 65.51 76.7401 66.22 77.2001 66.71C77.6601 67.2 78.2701 67.45 79.0201 67.45C79.6201 67.45 80.1301 67.27 80.5501 66.91C80.9601 66.55 81.2201 66.05 81.3201 65.42L80.4001 65.3C80.3301 65.77 80.1801 66.11 79.9301 66.34V66.32ZM82.1201 67.3H83.0601V61.78H82.1201V67.3ZM82.1201 60.75H83.0601V59.67H82.1201V60.75ZM88.8501 61.77H87.6401L85.4201 64.02V59.67H84.4801V67.29H85.4201V65.1L86.0801 64.47L87.9101 67.29H89.0701L86.7401 63.82L88.8501 61.77ZM89.8101 60.75H90.7501V59.67H89.8101V60.75ZM89.8101 67.3H90.7501V61.78H89.8101V67.3ZM94.2201 66.46C94.0501 66.48 93.9101 66.5 93.8101 66.5C93.6701 66.5 93.5601 66.48 93.4901 66.43C93.4201 66.38 93.3601 66.32 93.3301 66.25C93.3001 66.17 93.2801 66 93.2801 65.74V62.51H94.2201V61.78H93.2801V59.85L92.3501 60.41V61.78H91.6601V62.51H92.3501V65.69C92.3501 66.25 92.3901 66.62 92.4601 66.79C92.5401 66.97 92.6701 67.11 92.8501 67.21C93.0401 67.32 93.3001 67.37 93.6401 67.37C93.8501 67.37 94.0801 67.34 94.3501 67.29L94.2101 66.46H94.2201Z" fill="white"/>
</svg>
